<svg width="32" height="32" viewBox="0 0 32 32" fill="none" xmlns="http://www.w3.org/2000/svg">
<path fill-rule="evenodd" clip-rule="evenodd" d="M23.3058 1.37277C16.8393 -1.36233 10.3914 0.613021 7.97582 1.94258C3.23748 4.50729 -1.50087 10.7741 0.450216 19.3213C2.01108 26.1591 7.41837 29.7679 9.9269 30.7176C13.4574 31.8572 21.7449 33.1108 26.6505 29.0081C31.5561 24.9055 32.225 17.6119 31.9463 14.4779C31.7605 11.2492 29.7722 4.10787 23.3058 1.37277ZM15.2224 3.65161C7.41806 3.65161 3.90442 10.7743 3.79462 14.478C3.57163 21.9996 7.97551 26.1592 10.2053 27.2988C12.6209 28.7234 18.7343 30.5468 23.8629 26.4441C28.9915 22.3415 28.9729 15.6177 28.3225 12.7686C27.477 9.06483 23.0267 3.65161 15.2224 3.65161ZM12.3393 15.899C12.3393 14.7594 13.0082 12.4231 15.684 12.1952C18.3598 11.9673 19.4003 14.5694 19.5862 15.899C19.6791 16.9438 19.3074 19.2043 17.0776 19.8881C14.2904 20.7428 12.2637 18.1786 12.3393 15.899Z" fill="#606060"/>
</svg>
