<svg width="159" height="125" viewBox="0 0 159 125" fill="none" xmlns="http://www.w3.org/2000/svg">
<ellipse cx="119.383" cy="61.7644" rx="37.5" ry="16.1765" fill="white"/>
<path d="M119.677 47.646C142.75 48.051 153.325 59.3024 156.533 62.5331C158.647 52.2119 158.644 27.0767 139.643 8.56177C139.559 8.44016 139.473 8.35608 139.384 8.31167C139.471 8.3949 139.557 8.47827 139.643 8.56177C140.939 10.4418 141.738 21.2931 143.381 33.2483C139.122 24.5321 126.698 0.576435 100.859 1.81586C103.126 2.73744 112.28 21.2742 116.074 28.5361C111.898 24.7593 94.0926 2.96684 70.9708 5.52373C73.4151 5.56664 86.6075 18.2841 91.1428 28.0985C86.3114 24.4865 65.2556 8.17439 48.3637 12.5338C49.6731 12.2041 63.2422 23.7995 70.5425 31.9695C65.0222 30.6381 42.5903 18.7813 33.5269 22.8547C35.6395 23.2445 48.4105 33.8032 53.8102 38.5537C50.5598 37.9676 29.4088 35.5858 19.5906 37.953C20.5626 38.3227 35.1242 44.9977 40.8945 51.0245C36.978 51.3085 18.7022 44.4978 1.63217 59.8585L38.3255 69.614C48.5629 71.5573 66.6977 76.1321 79.7542 67.0497C92.1211 58.2726 96.6029 47.2409 119.677 47.646Z" fill="black" stroke="black"/>
<path d="M156.539 58.9722L149.743 53.0955L145.446 40.8919L147.796 52.021C137.279 46.8534 128.786 45.1591 125.854 44.9579L118.129 33.2543L122.92 44.9331C112.751 44.8469 106.94 45.8556 105.306 46.3708L95.6397 33.0637L103.351 46.3542L95.4968 49.9907L78.0122 36.0883L93.5278 51.5611L89.0964 55.2266L59.3892 41.2206L87.6163 56.8011L80.7135 63.6197L48.0372 53.8206L77.7667 65.1817C67.1671 69.7472 60.9378 70.1529 59.1481 69.785C54.4546 69.7452 44.8188 68.2529 40.5875 67.5117C37.8568 66.6421 29.0406 64.5924 24.9738 63.6763L4.48884 57.6836" stroke="white"/>
<path d="M106.291 61.0154C107.199 53.7238 113.38 48.6654 120.03 49.6248C126.679 50.5842 131.406 57.2163 130.498 64.508C129.591 71.7996 123.41 76.858 116.76 75.8985C110.111 74.9391 105.384 68.307 106.291 61.0154Z" fill="black" stroke="black"/>
<ellipse cx="6.56022" cy="7.08047" rx="6.56022" ry="7.08047" transform="matrix(-0.989756 -0.142801 0.123479 -0.992343 124.164 70.7612)" fill="black"/>
<path d="M119.417 78.0307C142.494 78.0167 153.257 66.9462 156.519 63.7703C158.459 74.1259 158.032 99.2574 138.721 117.448C138.635 117.568 138.547 117.65 138.458 117.693C138.546 117.612 138.633 117.53 138.721 117.448C140.049 115.59 141.03 104.754 142.875 92.828C138.469 101.471 125.643 125.212 99.8289 123.535C102.111 122.652 111.576 104.273 115.493 97.0767C111.253 100.782 93.0826 122.27 70.0073 119.321C72.452 119.32 85.8571 106.828 90.5574 97.0918C85.6658 100.621 64.3377 116.574 47.5218 111.929C48.8253 112.281 62.5882 100.917 70.0254 92.8721C64.4834 94.1098 41.8546 105.585 32.8612 101.358C34.9802 101.004 47.9275 90.6636 53.4066 86.0053C50.1468 86.5362 28.9586 88.5592 19.1818 86.0259C20.1599 85.6727 34.8321 79.2455 40.7032 73.3173C36.7921 72.967 18.404 79.467 1.59566 63.8191L38.4484 54.687C48.7171 52.9175 66.9266 48.6507 79.8278 57.9531C92.0448 66.9385 96.3398 78.0446 119.417 78.0307Z" fill="white" stroke="black"/>
<path d="M156.475 67.3296L149.581 73.0903L145.078 85.2194L147.617 74.1317C137.013 79.1203 128.493 80.6704 125.558 80.8219L117.637 92.3929L122.624 80.797C112.455 80.7108 106.662 79.6037 105.037 79.0609L95.1475 92.2023L103.082 79.0443L95.2903 75.2753L77.5736 88.8793L93.3481 73.6718L88.9792 69.9317L59.0398 83.4322L87.5259 68.3323L80.7392 61.3977L47.9022 70.6416L77.8192 59.7859C67.2981 55.0415 61.0766 54.5303 59.2809 54.8677C54.5874 54.828 44.9278 56.1568 40.6846 56.8262C37.9396 57.6493 29.09 59.5493 25.0084 60.3964L4.42523 66.041" stroke="black"/>
<ellipse cx="124.025" cy="55.3659" rx="2.42005" ry="2.4251" transform="rotate(-180 124.025 55.3659)" fill="white"/>
</svg>
