<svg width="73" height="73" viewBox="0 0 73 73" fill="none" xmlns="http://www.w3.org/2000/svg">
<path d="M25.0938 66.1562H47.9062" stroke="black" stroke-width="3" stroke-linecap="round" stroke-linejoin="round"/>
<path d="M22.8127 47.9058C19.9955 45.7985 17.7052 43.0665 16.1219 39.9247C14.5386 36.7828 13.7054 33.3166 13.6877 29.7984C13.6307 17.4226 23.5827 7.1285 35.9584 6.84335C40.7954 6.73069 45.5429 8.15882 49.515 10.9213C53.487 13.6839 56.4779 17.6377 58.0554 22.2116C59.633 26.7855 59.7154 31.7425 58.2909 36.3663C56.8664 40.9901 54.0087 45.0412 50.1307 47.9344C49.4367 48.4686 48.8751 49.1555 48.4894 49.9417C48.1037 50.728 47.9042 51.5926 47.9065 52.4683C47.9065 53.0734 47.6662 53.6536 47.2383 54.0814C46.8105 54.5093 46.2303 54.7496 45.6252 54.7496H27.3752C26.7702 54.7496 26.19 54.5093 25.7622 54.0814C25.3343 53.6536 25.094 53.0734 25.094 52.4683V52.4113C25.0941 51.534 24.8876 50.669 24.4913 49.8862C24.0949 49.1035 23.5199 48.4251 22.8127 47.9058V47.9058Z" stroke="black" stroke-width="3" stroke-linecap="round" stroke-linejoin="round"/>
<path d="M46.509 27.3745C46.0857 25.4864 45.1345 23.7576 43.7663 22.3894C42.3981 21.0212 40.6693 20.0701 38.7812 19.6467" stroke="black" stroke-width="3" stroke-linecap="round" stroke-linejoin="round"/>
</svg>
