<svg width="73" height="73" viewBox="0 0 73 73" fill="none" xmlns="http://www.w3.org/2000/svg">
<path d="M57.0312 50.1876V18.2501C57.035 17.3503 56.8606 16.4586 56.518 15.6266C56.1754 14.7946 55.6714 14.0386 55.0352 13.4024C54.3989 12.7661 53.643 12.2622 52.8109 11.9196C51.9789 11.577 51.0873 11.4025 50.1875 11.4063H11.4062" stroke="black" stroke-width="3" stroke-linecap="round" stroke-linejoin="round"/>
<path d="M29.6562 28.5156H47.9062" stroke="black" stroke-width="3" stroke-linecap="round" stroke-linejoin="round"/>
<path d="M29.6562 39.9219H47.9062" stroke="black" stroke-width="3" stroke-linecap="round" stroke-linejoin="round"/>
<path d="M6.30195 22.8123C5.56322 21.9851 5.03656 20.9909 4.76729 19.9151C4.49803 18.8393 4.49423 17.7142 4.75623 16.6366C5.01823 15.559 5.53818 14.5612 6.27131 13.7291C7.00445 12.897 7.92881 12.2556 8.96483 11.86C10.0009 11.4643 11.1175 11.3264 12.2186 11.4581C13.3198 11.5897 14.3724 11.987 15.286 12.6157C16.1996 13.2443 16.9467 14.0856 17.463 15.0671C17.9793 16.0485 18.2494 17.1408 18.25 18.2498V54.7498C18.2506 55.8587 18.5207 56.951 19.037 57.9324C19.5533 58.9139 20.3004 59.7552 21.214 60.3839C22.1276 61.0126 23.1802 61.4098 24.2814 61.5415C25.3825 61.6731 26.4991 61.5352 27.5352 61.1396C28.5712 60.744 29.4956 60.1025 30.2287 59.2704C30.9618 58.4383 31.4818 57.4405 31.7438 56.363C32.0058 55.2854 32.002 54.1602 31.7327 53.0844C31.4634 52.0086 30.9368 51.0144 30.198 50.1873H62.1355C63.0165 51.1722 63.5935 52.3911 63.7968 53.6968C64.0001 55.0024 63.8211 56.3391 63.2813 57.5452C62.7416 58.7514 61.8642 59.7755 60.7551 60.4938C59.646 61.2122 58.3527 61.5941 57.0312 61.5935H25.0938" stroke="black" stroke-width="3" stroke-linecap="round" stroke-linejoin="round"/>
</svg>
