<svg width="73" height="73" viewBox="0 0 73 73" fill="none" xmlns="http://www.w3.org/2000/svg">
<path d="M37.6408 61.5938H13.6021C13.3127 61.5976 13.0255 61.5434 12.7574 61.4344C12.4892 61.3254 12.2457 61.1638 12.041 60.9592C11.8363 60.7545 11.6748 60.5109 11.5658 60.2428C11.4568 59.9747 11.4026 59.6875 11.4064 59.398V35.3594C11.4064 28.4016 14.1704 21.7288 19.0903 16.8089C24.0102 11.889 30.683 9.125 37.6408 9.125V9.125C41.086 9.125 44.4974 9.80357 47.6803 11.122C50.8632 12.4404 53.7552 14.3728 56.1913 16.8089C58.6274 19.245 60.5598 22.137 61.8782 25.3199C63.1966 28.5028 63.8752 31.9142 63.8752 35.3594V35.3594C63.8752 38.8045 63.1966 42.2159 61.8782 45.3988C60.5598 48.5817 58.6274 51.4738 56.1913 53.9099C53.7552 56.346 50.8632 58.2784 47.6803 59.5968C44.4974 60.9152 41.086 61.5938 37.6408 61.5938V61.5938Z" stroke="black" stroke-width="3" stroke-linecap="round" stroke-linejoin="round"/>
<path d="M28.5156 30.7969H45.625" stroke="black" stroke-width="3" stroke-linecap="round" stroke-linejoin="round"/>
<path d="M28.5156 42.2031H45.625" stroke="black" stroke-width="3" stroke-linecap="round" stroke-linejoin="round"/>
</svg>
