<svg width="73" height="73" viewBox="0 0 73 73" fill="none" xmlns="http://www.w3.org/2000/svg">
<path d="M36.5 63.875C51.6188 63.875 63.875 51.6188 63.875 36.5C63.875 21.3812 51.6188 9.125 36.5 9.125C21.3812 9.125 9.125 21.3812 9.125 36.5C9.125 51.6188 21.3812 63.875 36.5 63.875Z" stroke="black" stroke-width="3" stroke-linecap="round" stroke-linejoin="round"/>
<path d="M26.2344 41.0625C28.7542 41.0625 30.7969 39.0198 30.7969 36.5C30.7969 33.9802 28.7542 31.9375 26.2344 31.9375C23.7146 31.9375 21.6719 33.9802 21.6719 36.5C21.6719 39.0198 23.7146 41.0625 26.2344 41.0625Z" fill="black"/>
<path d="M46.7656 41.0625C49.2854 41.0625 51.3281 39.0198 51.3281 36.5C51.3281 33.9802 49.2854 31.9375 46.7656 31.9375C44.2458 31.9375 42.2031 33.9802 42.2031 36.5C42.2031 39.0198 44.2458 41.0625 46.7656 41.0625Z" fill="black"/>
<path d="M44.0566 47.9062C41.8171 49.3936 39.1884 50.187 36.5 50.187C33.8116 50.187 31.1829 49.3936 28.9434 47.9062" stroke="black" stroke-width="3" stroke-linecap="round" stroke-linejoin="round"/>
<path d="M36.5 9.125C31.9375 14.8281 31.9375 20.5312 31.9375 20.5312C31.9375 21.7413 32.4182 22.9018 33.2738 23.7574C34.1295 24.6131 35.2899 25.0938 36.5 25.0938C37.2986 25.0886 38.0831 24.8827 38.7812 24.4949" stroke="black" stroke-width="3" stroke-linecap="round" stroke-linejoin="round"/>
</svg>
