<svg width="13" height="12" viewBox="0 0 13 12" fill="none" xmlns="http://www.w3.org/2000/svg">
<path d="M9.74457 0C7.37099 0 6.49891 2.42558 6.49891 2.42558C6.49891 2.42558 5.63874 0 3.24892 0C1.45275 0 -0.594744 1.4235 0.161422 4.65941C0.917587 7.89532 6.50541 11.9264 6.50541 11.9264C6.50541 11.9264 12.0726 7.89532 12.8299 4.65941C13.5861 1.4235 11.6859 0 9.74457 0Z" fill="#F44336"/>
<path d="M2.88274 0.241583C4.74607 0.241583 5.67124 2.24466 5.97024 3.05608C6.01249 3.17199 6.1739 3.17524 6.22265 3.06258L6.49565 2.4245C6.11107 1.196 5.05374 0 3.24891 0C2.50141 0 1.71166 0.246999 1.09741 0.768082C1.64016 0.411666 2.27608 0.241583 2.88274 0.241583Z" fill="#CC3333"/>
<path d="M9.74456 0C9.17148 0 8.64931 0.124583 8.24198 0.375916C8.52798 0.265416 8.88223 0.241583 9.23323 0.241583C10.9893 0.241583 12.5612 1.573 11.8516 4.65074C11.2428 7.29298 7.68515 10.4986 6.59857 11.7216C6.52923 11.7996 6.5054 11.9253 6.5054 11.9253C6.5054 11.9253 12.0726 7.89423 12.8299 4.65832C13.5861 1.4235 11.6891 0 9.74456 0Z" fill="#CC3333"/>
<path d="M1.40833 1.71684C1.81458 1.20984 2.54041 0.790589 3.15574 1.27375C3.48832 1.53484 3.34316 2.07 3.04524 2.29534C2.61191 2.62467 2.23491 2.82292 1.97058 3.33858C1.81241 3.64842 1.71708 3.9875 1.66833 4.33308C1.64883 4.46958 1.47008 4.50316 1.40291 4.38292C0.945747 3.57258 0.815747 2.45675 1.40833 1.71684Z" fill="#FF8A80"/>
<path d="M7.92133 2.78296C7.73066 2.78296 7.59633 2.59879 7.66566 2.42112C7.79458 2.09396 7.96141 1.77763 8.16183 1.49596C8.45866 1.07996 9.02307 0.837294 9.38057 1.08971C9.74674 1.34754 9.69907 1.86321 9.44232 2.11237C8.89091 2.64646 8.19541 2.78296 7.92133 2.78296Z" fill="#FF8A80"/>
</svg>
