<svg width="131" height="106" viewBox="0 0 131 106" fill="none" xmlns="http://www.w3.org/2000/svg">
<path d="M97.9728 39.6989C116.856 39.5988 125.717 48.6053 128.401 51.1882C129.938 42.7054 129.466 22.1434 113.575 7.35241C113.504 7.25449 113.432 7.18732 113.359 7.15265C113.432 7.21911 113.504 7.28571 113.575 7.35241C114.671 8.86617 115.527 17.7282 117.095 27.4775C113.448 20.4268 102.836 1.06202 81.722 2.55915C83.5938 3.27065 91.4287 18.2636 94.6684 24.1333C91.181 21.1218 76.208 3.62726 57.3409 6.15134C59.3412 6.14073 70.3712 16.2977 74.2649 24.2415C70.245 21.3771 52.7151 8.42661 38.9781 12.3087C40.043 12.0145 51.3602 21.2465 57.4851 27.7935C52.9442 26.8076 34.3719 17.5275 27.0337 21.0293C28.7692 21.3087 39.4141 29.7075 43.9202 33.4927C41.2502 33.074 23.9029 31.5211 15.9154 33.6412C16.7174 33.9255 28.7545 39.1137 33.5876 43.9361C30.389 44.2416 15.311 39.0118 1.63397 51.897L31.8337 59.1914C40.2448 60.5896 55.1657 63.993 65.6768 56.3189C75.6295 48.9075 79.0895 39.7991 97.9728 39.6989Z" fill="black" stroke="black"/>
<path d="M128.343 48.2754L122.674 43.5951L118.93 33.6921L121.061 42.7524C112.361 38.7217 105.381 37.4945 102.979 37.3848L96.4409 27.955L100.578 37.4193C92.2578 37.539 87.5233 38.4729 86.1961 38.9249L78.0395 28.2196L84.596 38.9479L78.2391 42.0696L63.6758 31.0236L76.6577 43.3911L73.1011 46.4725L48.537 35.5704L71.9198 47.7882L66.4005 53.4953L39.4861 46.0902L64.019 54.8283C55.4332 58.7613 50.3449 59.2097 48.874 58.9422C45.0337 58.9975 37.1231 57.9568 33.6479 57.4296C31.3977 56.7693 24.1472 55.2574 20.8032 54.584L3.93325 50.0647" stroke="white"/>
<path d="M87.3594 50.8975C87.9609 44.9588 92.884 40.7482 98.2856 41.4019C103.687 42.0556 107.649 47.3414 107.047 53.2801C106.446 59.2187 101.522 63.4294 96.1208 62.7757C90.7192 62.1219 86.7579 56.8361 87.3594 50.8975Z" fill="black" stroke="black"/>
<ellipse rx="5.36804" ry="5.79375" transform="matrix(-0.992761 -0.120144 0.100768 -0.994906 97.3325 52.1159)" fill="black"/>
<path d="M98.3308 64.5602C117.209 64.1173 125.807 54.8597 128.416 52.2006C130.196 60.6358 130.317 81.2028 114.859 96.4447C114.791 96.5446 114.721 96.6138 114.649 96.6505C114.719 96.582 114.79 96.5134 114.859 96.4447C115.911 94.9 116.511 86.017 117.798 76.2266C114.355 83.3793 104.306 103.041 83.1575 102.152C85.008 101.387 92.4074 86.1749 95.4766 80.2144C92.0774 83.325 77.615 101.243 58.6829 99.2624C60.6827 99.2155 71.4153 88.7456 75.0784 80.693C71.1427 83.6719 53.9934 97.1211 40.1502 93.6357C41.2232 93.8991 52.2695 84.3455 58.2031 77.6251C53.6926 78.7412 35.3955 88.5515 27.9594 85.2622C29.6861 84.933 40.0844 76.2316 44.4796 72.3184C41.8227 72.8137 24.5274 74.8648 16.4821 72.9753C17.2756 72.6681 29.1581 67.1359 33.8502 62.1765C30.6441 61.963 15.7231 67.6243 1.68029 55.1378L31.6572 46.9779C40.0245 45.3384 54.8411 41.5074 65.569 48.876C75.7313 55.9981 79.4525 65.0032 98.3308 64.5602Z" fill="white" stroke="black"/>
<path d="M128.442 55.1138L122.91 59.9553L119.454 69.9617L121.323 60.8439C112.742 65.1232 105.801 66.5506 103.403 66.7294L97.1394 76.3433L101.002 66.7639C92.6818 66.8836 87.9222 66.0862 86.5826 65.6726L78.738 76.6079L84.9824 65.6956L78.5383 62.758L64.2994 74.2182L76.9194 61.4825L73.2755 58.5046L49.0358 70.1087L72.0567 57.2234L66.3751 51.6774L39.6854 59.8535L63.9562 50.4135C55.2606 46.729 50.1615 46.4272 48.6989 46.7368C44.8586 46.7921 36.9813 48.0598 33.5227 48.6867C31.2925 49.4114 24.0885 51.1312 20.7653 51.9005L4.03269 56.9031" stroke="black"/>
<ellipse cx="102.058" cy="49.3262" rx="1.98026" ry="1.98439" transform="rotate(178.69 102.058 49.3262)" fill="white"/>
</svg>
