<svg width="164" height="153" viewBox="0 0 164 153" fill="none" xmlns="http://www.w3.org/2000/svg">
<path d="M107.249 76.5194C107.249 89.512 95.9561 100.045 82.0256 100.045C68.0951 100.045 56.8022 89.512 56.8022 76.5194C56.8022 63.5267 68.0951 52.9941 82.0256 52.9941C95.9561 52.9941 107.249 63.5267 107.249 76.5194Z" fill="white"/>
<path d="M164 76.521L78.8711 81.6143V71.4276L164 76.521Z" fill="white"/>
<path d="M160.004 100.132L77.3464 80.467L80.718 70.7778L160.004 100.132Z" fill="white"/>
<path d="M148.326 121.487L76.2713 78.9004L82.6962 70.6626L148.326 121.487Z" fill="white"/>
<path d="M130.416 138.236L75.6831 77.2113L84.492 71.1889L130.416 138.236Z" fill="white"/>
<path d="M107.546 149.186L75.774 75.3492L86.1498 72.1682L107.546 149.186Z" fill="white"/>
<path d="M81.7059 152.977L76.5736 73.5607L87.4955 73.6L81.7059 152.977Z" fill="white"/>
<path d="M56.4074 149.152L77.8032 72.1346L88.1791 75.3157L56.4074 149.152Z" fill="white"/>
<path d="M33.5675 138.192L79.4912 71.1445L88.3001 77.1669L33.5675 138.192Z" fill="white"/>
<path d="M15.548 121.253L81.3762 70.6527L87.7688 78.9124L15.548 121.253Z" fill="white"/>
<path d="M3.9506 99.8561L83.3545 70.7815L86.6868 80.4825L3.9506 99.8561Z" fill="white"/>
<path d="M0.0480699 75.9289L85.216 71.4565L85.1328 81.6429L0.0480699 75.9289Z" fill="white"/>
<path d="M4.24027 52.3714L86.7361 72.617L83.2864 82.2822L4.24027 52.3714Z" fill="white"/>
<path d="M16.0693 31.1135L87.7884 74.1899L81.2992 82.3837L16.0693 31.1135Z" fill="white"/>
<path d="M34.2978 14.3554L88.3101 75.9362L79.4309 81.8682L34.2978 14.3554Z" fill="white"/>
<path d="M57.2961 3.62082L88.1696 77.788L77.7558 80.8593L57.2961 3.62082Z" fill="white"/>
<path d="M82.9793 0.0676609L87.4476 79.5184L76.5263 79.4013L82.9793 0.0676609Z" fill="white"/>
<path d="M108.199 4.05395L86.1815 80.9189L75.8316 77.665L108.199 4.05395Z" fill="white"/>
<path d="M130.94 15.1659L84.493 81.8987L75.7315 75.8165L130.94 15.1659Z" fill="white"/>
<path d="M148.853 32.2356L82.6305 82.3861L76.3028 74.0831L148.853 32.2356Z" fill="white"/>
<path d="M160.282 53.7315L80.6453 82.2461L77.3916 72.5219L160.282 53.7315Z" fill="white"/>
</svg>
